<?xml version="1.0" standalone="no"?>
<!DOCTYPE svg PUBLIC "-//W3C//DTD SVG 20010904//EN"
 "http://www.w3.org/TR/2001/REC-SVG-20010904/DTD/svg10.dtd">
<svg version="1.0" xmlns="http://www.w3.org/2000/svg"
 width="512.000000pt" height="512.000000pt" viewBox="0 0 512.000000 512.000000"
 preserveAspectRatio="xMidYMid meet">

<g transform="translate(0.000000,512.000000) scale(0.100000,-0.100000)"
fill="#000000" stroke="none">
<path d="M2544 5105 c-207 -45 -377 -179 -468 -367 -67 -139 -71 -169 -71
-519 0 -288 1 -308 19 -328 23 -25 72 -28 103 -6 20 14 21 23 25 332 4 310 5
320 30 389 68 192 226 325 421 356 250 38 497 -115 579 -361 22 -65 23 -78 28
-758 5 -634 6 -694 22 -709 27 -27 77 -22 105 10 l24 28 -3 692 c-4 768 -2
738 -73 882 -136 271 -449 423 -741 359z"/>
<path d="M2043 3678 c-12 -6 -27 -24 -32 -41 -8 -20 -11 -382 -11 -1118 l0
-1087 -26 -31 c-49 -58 -139 -59 -187 -1 -24 28 -25 35 -30 232 -6 230 -14
277 -79 408 -79 162 -253 300 -438 346 -84 22 -236 22 -320 0 -194 -49 -359
-182 -443 -357 -68 -142 -72 -168 -72 -454 1 -268 10 -344 60 -520 34 -121
149 -350 229 -456 552 -732 1599 -802 2240 -151 49 49 115 127 148 173 52 73
66 86 110 103 l50 18 164 -163 c90 -90 171 -179 180 -197 28 -59 13 -93 -82
-192 -95 -99 -106 -131 -58 -169 47 -37 69 -28 159 59 106 104 139 163 139
250 1 107 -21 140 -217 337 l-171 173 47 48 47 47 308 -307 c169 -169 320
-312 335 -317 32 -12 80 6 91 34 20 53 14 60 -309 385 l-315 316 58 57 57 57
315 -315 c284 -284 318 -315 347 -315 43 0 73 30 73 72 0 29 -32 65 -315 348
l-315 316 50 49 50 50 178 -177 c97 -97 192 -184 211 -193 51 -26 129 -30 195
-11 49 15 71 30 148 104 50 48 95 98 100 111 17 46 -25 101 -79 101 -8 0 -52
-35 -97 -79 -88 -86 -111 -101 -151 -101 -45 0 -76 24 -245 194 l-164 165 16
48 c34 101 29 193 -17 283 -25 50 -86 110 -111 110 -33 0 -72 -30 -79 -60 -6
-26 0 -41 31 -86 48 -70 58 -148 26 -210 -30 -57 -669 -691 -707 -701 -105
-27 -180 7 -288 131 -80 93 -129 190 -151 298 -20 96 -20 145 -1 243 43 225
229 421 455 480 104 27 271 17 378 -23 85 -33 113 -32 141 1 20 25 10 87 -19
108 -35 26 -132 59 -215 73 l-70 12 -5 350 c-3 192 -9 356 -13 365 -8 17 -49
39 -71 39 -7 0 -25 -9 -40 -21 l-26 -20 0 -359 0 -358 -47 -7 c-67 -10 -192
-56 -259 -96 -75 -44 -219 -188 -263 -261 -148 -253 -148 -556 0 -805 49 -81
197 -233 261 -268 29 -15 55 -29 57 -31 8 -7 -104 -137 -177 -205 -177 -166
-396 -278 -657 -335 -111 -24 -368 -24 -488 0 -279 55 -523 188 -718 393 -180
190 -292 410 -345 678 -23 116 -27 544 -6 615 56 185 191 321 371 374 67 20
207 21 277 2 130 -35 260 -137 322 -253 56 -107 63 -140 70 -373 9 -243 14
-264 92 -334 57 -52 103 -69 180 -69 79 -1 139 24 192 78 79 80 73 -25 76
1234 l2 1124 -22 24 c-23 25 -50 28 -85 11z"/>
<path d="M3622 2781 c-104 -36 -166 -123 -166 -231 0 -143 101 -244 244 -244
212 0 323 250 181 407 -66 74 -168 101 -259 68z m142 -167 c57 -57 20 -154
-59 -154 -48 0 -74 15 -90 52 -16 38 -5 85 26 111 33 26 91 22 123 -9z"/>
<path d="M2210 1165 c-171 -54 -230 -275 -107 -403 64 -67 149 -93 236 -72
218 52 259 346 63 453 -60 33 -133 41 -192 22z m137 -169 c22 -19 28 -33 28
-64 0 -69 -58 -112 -121 -92 -43 15 -64 45 -64 93 0 80 94 117 157 63z"/>
</g>
</svg>
